HIERARCHY
ROOT hip
{
  OFFSET 0 0 0
  CHANNELS 6 Xposition Yposition Zposition Zrotation Yrotation Xrotation
  JOINT abdomen
  {
    OFFSET 0 20.6881 -0.73152
    CHANNELS 3 Zrotation Xrotation Yrotation
    JOINT chest
    {
      OFFSET 0 11.7043 -0.48768
      CHANNELS 3 Zrotation Xrotation Yrotation
      JOINT neck
      {
        OFFSET 0 22.1894 -2.19456
        CHANNELS 3 Zrotation Xrotation Yrotation
        JOINT head
        {
          OFFSET -0.24384 7.07133 1.2192
          CHANNELS 3 Zrotation Xrotation Yrotation
          JOINT leftEye
          {
            OFFSET 4.14528 8.04674 8.04672
            CHANNELS 3 Zrotation Xrotation Yrotation
            End Site
            {
              OFFSET 1 0 0
            }
          }
          JOINT rightEye
          {
            OFFSET -3.6576 8.04674 8.04672
            CHANNELS 3 Zrotation Xrotation Yrotation
            End Site
            {
              OFFSET 1 0 0
            }
          }
        }
      }
      JOINT rCollar
      {
        OFFSET -2.68224 19.2634 -4.8768
        CHANNELS 3 Zrotation Xrotation Yrotation
        JOINT rShldr
        {
          OFFSET -8.77824 -1.95073 1.46304
          CHANNELS 3 Zrotation Xrotation Yrotation
          JOINT rForeArm
          {
            OFFSET -28.1742 -1.7115 0.48768
            CHANNELS 3 Zrotation Xrotation Yrotation
            JOINT rHand
            {
              OFFSET -22.5879 0.773209 7.07136
              CHANNELS 3 Zrotation Xrotation Yrotation
              JOINT rThumb1
              {
                OFFSET -1.2192 -0.487915 3.41376
                CHANNELS 3 Zrotation Xrotation Yrotation
                JOINT rThumb2
                {
                  OFFSET -3.37035 -0.52449 3.41376
                  CHANNELS 3 Zrotation Xrotation Yrotation
                  End Site
                  {
                    OFFSET -1.78271 -1.18214 1.43049
                  }
                }
              }
              JOINT rIndex1
              {
                OFFSET -7.75947 0.938293 5.60832
                CHANNELS 3 Zrotation Xrotation Yrotation
                JOINT rIndex2
                {
                  OFFSET -2.54057 -0.884171 1.56538
                  CHANNELS 3 Zrotation Xrotation Yrotation
                  End Site
                  {
                    OFFSET -1.62519 -0.234802 1.16502
                  }
                }
              }
              JOINT rMid1
              {
                OFFSET -8.24714 1.18213 3.41376
                CHANNELS 3 Zrotation Xrotation Yrotation
                JOINT rMid2
                {
                  OFFSET -3.10165 -0.590103 1.0647
                  CHANNELS 3 Zrotation Xrotation Yrotation
                  End Site
                  {
                    OFFSET -2.48547 -0.328903 0.83742
                  }
                }
              }
              JOINT rRing1
              {
                OFFSET -8.82822 0.546677 1.51678
                CHANNELS 3 Zrotation Xrotation Yrotation
                JOINT rRing2
                {
                  OFFSET -2.60934 -0.819778 -0.0198488
                  CHANNELS 3 Zrotation Xrotation Yrotation
                  End Site
                  {
                    OFFSET -2.33842 -0.294052 0.168128
                  }
                }
              }
              JOINT rPinky1
              {
                OFFSET -8.27202 -0.0477905 -0.4584
                CHANNELS 3 Zrotation Xrotation Yrotation
                JOINT rPinky2
                {
                  OFFSET -1.82734 -0.647385 -0.700984
                  CHANNELS 3 Zrotation Xrotation Yrotation
                  End Site
                  {
                    OFFSET -1.69225 -0.51767 -0.607171
                  }
                }
              }
            }
          }
        }
      }
      JOINT lCollar
      {
        OFFSET 2.68224 19.2634 -4.8768
        CHANNELS 3 Zrotation Xrotation Yrotation
        JOINT lShldr
        {
          OFFSET 8.77824 -1.95073 1.46304
          CHANNELS 3 Zrotation Xrotation Yrotation
          JOINT lForeArm
          {
            OFFSET 28.1742 -1.7115 0.48768
            CHANNELS 3 Zrotation Xrotation Yrotation
            JOINT lHand
            {
              OFFSET 22.5879 0.773209 7.07136
              CHANNELS 3 Zrotation Xrotation Yrotation
              JOINT lThumb1
              {
                OFFSET 1.2192 -0.487915 3.41376
                CHANNELS 3 Zrotation Xrotation Yrotation
                JOINT lThumb2
                {
                  OFFSET 3.37035 -0.52449 3.41376
                  CHANNELS 3 Zrotation Xrotation Yrotation
                  End Site
                  {
                    OFFSET 1.78271 -1.18214 1.43049
                  }
                }
              }
              JOINT lIndex1
              {
                OFFSET 7.75947 0.938293 5.60832
                CHANNELS 3 Zrotation Xrotation Yrotation
                JOINT lIndex2
                {
                  OFFSET 2.54057 -0.884171 1.56538
                  CHANNELS 3 Zrotation Xrotation Yrotation
                  End Site
                  {
                    OFFSET 1.62519 -0.234802 1.16502
                  }
                }
              }
              JOINT lMid1
              {
                OFFSET 8.24714 1.18213 3.41376
                CHANNELS 3 Zrotation Xrotation Yrotation
                JOINT lMid2
                {
                  OFFSET 3.10165 -0.590103 1.0647
                  CHANNELS 3 Zrotation Xrotation Yrotation
                  End Site
                  {
                    OFFSET 2.48547 -0.328903 0.83742
                  }
                }
              }
              JOINT lRing1
              {
                OFFSET 8.82822 0.546677 1.51678
                CHANNELS 3 Zrotation Xrotation Yrotation
                JOINT lRing2
                {
                  OFFSET 2.60934 -0.819778 -0.0198488
                  CHANNELS 3 Zrotation Xrotation Yrotation
                  End Site
                  {
                    OFFSET 2.33842 -0.294052 0.168128
                  }
                }
              }
              JOINT lPinky1
              {
                OFFSET 8.27202 -0.0477905 -0.4584
                CHANNELS 3 Zrotation Xrotation Yrotation
                JOINT lPinky2
                {
                  OFFSET 1.82734 -0.647385 -0.700984
                  CHANNELS 3 Zrotation Xrotation Yrotation
                  End Site
                  {
                    OFFSET 1.69225 -0.51767 -0.607171
                  }
                }
              }
            }
          }
        }
      }
    }
  }
  JOINT rButtock
  {
    OFFSET -8.77824 4.35084 1.2192
    CHANNELS 3 Zrotation Xrotation Yrotation
    JOINT rThigh
    {
      OFFSET 0 -1.70687 -2.19456
      CHANNELS 3 Zrotation Xrotation Yrotation
      JOINT rShin
      {
        OFFSET 0 -36.8199 0.73152
        CHANNELS 3 Zrotation Xrotation Yrotation
        JOINT rFoot
        {
          OFFSET 0.73152 -45.1104 -5.12064
          CHANNELS 3 Zrotation Xrotation Yrotation
          End Site
          {
            OFFSET -1.1221 -3.69964 12.103
          }
        }
      }
    }
  }
  JOINT lButtock
  {
    OFFSET 8.77824 4.35084 1.2192
    CHANNELS 3 Zrotation Xrotation Yrotation
    JOINT lThigh
    {
      OFFSET 0 -1.70687 -2.19456
      CHANNELS 3 Zrotation Xrotation Yrotation
      JOINT lShin
      {
        OFFSET 0 -36.8199 0.73152
        CHANNELS 3 Zrotation Xrotation Yrotation
        JOINT lFoot
        {
          OFFSET -0.73152 -45.1104 -5.12064
          CHANNELS 3 Zrotation Xrotation Yrotation
          End Site
          {
            OFFSET 1.1221 -3.69964 12.103
          }
        }
      }
    }
  }
}
MOTION
Frames:	4
Frame Time:	0.03333
-10.503399999999997 70.3284 25.4225 -16.163400650024414 -24.880901336669922 12.736199378967285 12.040301322937012 6.892889976501465 11.183399200439453 -1.8684899806976318 -7.76377010345459 3.1348700523376465 -2.245689868927002 14.440901756286621 1.1921199560165405 7.289450168609619 -26.310800552368164 4.1266303062438965 -0.0 0.0 -0.0 -0.0 0.0 -0.0 -3.878009838167301e-13 -2.0978399952516907e-13 -8.232119413226213e-13 78.43370056152344 48.56870651245117 -20.04379653930664 -28.393701553344727 -37.1472053527832 78.94339752197266 -0.117762990295887 9.738430976867676 1.3821200132369995 -2.117149788816164e-09 -9.067700368348142e-09 4.3617598421974435e-09 -3.623590094647966e-09 -1.5949300546935774e-08 7.559059156392323e-09 -2.117149788816164e-09 -9.067700368348142e-09 4.3617598421974435e-09 7.730909824371338 5.474879741668701 0.4173140823841095 -2.117149788816164e-09 -9.067689710207105e-09 4.3617598421974435e-09 2.9055399894714355 0.9651829600334167 0.10290199518203735 -2.117140018853547e-09 -9.067689710207105e-09 4.36177005624927e-09 10.27859878540039 0.73180091381073 0.025912316516041756 -2.117149788816164e-09 -9.067700368348142e-09 4.36177005624927e-09 2.221669912338257 -0.733487069606781 -0.208919957280159 -3.878839794930339e-13 -2.0978799752068011e-13 -8.235110184919014e-13 -51.347900390625 31.770601272583008 -29.303197860717773 28.41699981689453 -36.61199951171875 -78.03900146484375 0.8592000007629395 -25.354198455810547 3.8184802532196045 1.5895099680918179e-09 -5.7293703115135486e-09 4.772319761592314e-10 2.7213498121625435e-09 -9.742969986348271e-09 8.710658860877629e-10 1.5895099680918179e-09 -5.7293796373869554e-09 4.772409689657309e-10 -7.730909824371338 5.474879741668701 -0.4173140823841095 1.5895099680918179e-09 -5.7293703115135486e-09 4.772329753599536e-10 -2.9055399894714355 0.9651829600334167 -0.10290199518203735 1.5894999760845963e-09 -5.7293703115135486e-09 4.772329753599536e-10 -10.27859878540039 0.73180091381073 -0.025912316516041756 1.589519849076737e-09 -5.7293703115135486e-09 4.77228034867494e-10 -2.221669912338257 -0.733487069606781 0.208919957280159 -2.0321699480147914e-16 0.0 -3.8825099822884138e-19 0.8470950126647949 -1.150970220565796 -4.873879432678223 -0.1606079787015915 40.220394134521484 1.7464901208877563 -17.586097717285156 -20.506999969482422 -31.649694442749023 2.0321699480147914e-16 0.0 3.8825099822884138e-19 65.60279846191406 -57.586692810058594 54.613895416259766 2.0881500244140625 69.55850219726562 -2.219050168991089 0.7482719421386719 -1.5267999172210693 1.7003098726272583
-10.5112 70.16579999999999 25.4334 -16.207399368286133 -25.23470115661621 12.871502876281738 12.002299308776855 6.924300670623779 11.408300399780273 -1.8259001970291138 -7.807338714599609 3.200670003890991 -2.1530001163482666 14.313000679016113 1.1939399242401123 7.11760950088501 -26.20389747619629 4.0853095054626465 -0.0 0.0 -0.0 -0.0 0.0 -0.0 -3.1081799460597193e-13 4.516149959424634e-14 -1.2530000908367311e-12 77.72789764404297 48.30550003051758 -19.345699310302734 -28.402198791503906 -36.96760177612305 78.6416015625 -0.12584297358989716 10.065400123596191 1.4294699430465698 -4.721519619721448e-09 -1.125409898605767e-08 7.836339577238505e-09 -8.094930059598937e-09 -1.996489906730403e-08 1.3582400093525848e-08 -4.721519619721448e-09 -1.125409898605767e-08 7.836339577238505e-09 7.730909824371338 5.474879741668701 0.4173140823841095 -4.721519619721448e-09 -1.125409898605767e-08 7.836350235379541e-09 2.9055399894714355 0.9651829600334167 0.10290199518203735 -4.721519619721448e-09 -1.125409898605767e-08 7.836350235379541e-09 10.27859878540039 0.73180091381073 0.025912316516041756 -4.721529833773275e-09 -1.125409898605767e-08 7.836350235379541e-09 2.221669912338257 -0.733487069606781 -0.208919957280159 -3.1092898980338013e-13 4.5160998150741566e-14 -1.2532798149972324e-12 -51.56769561767578 31.268604278564453 -29.693397521972656 28.4132022857666 -36.71040344238281 -78.20610046386719 0.8507720828056335 -25.238601684570312 3.7986104488372803 2.585139879940357e-09 -1.0463799604565338e-08 -1.364379997870202e-10 4.451989887854779e-09 -1.7921498951523063e-08 -1.6645598788223026e-10 2.585139879940357e-09 -1.0463799604565338e-08 -1.364300061812429e-10 -7.730909824371338 5.474879741668701 -0.4173140823841095 2.585139879940357e-09 -1.0463799604565338e-08 -1.3643698670851023e-10 -2.9055399894714355 0.9651829600334167 -0.10290199518203735 2.5851298879331353e-09 -1.0463799604565338e-08 -1.3643600138557588e-10 -10.27859878540039 0.73180091381073 -0.025912316516041756 2.585139879940357e-09 -1.0463799604565338e-08 -1.3643998431067672e-10 -2.221669912338257 -0.733487069606781 0.208919957280159 -2.0321699480147914e-16 0.0 -3.8825099822884138e-19 0.859904944896698 -1.3386601209640503 -4.615699768066406 -0.16189903020858765 40.3607063293457 1.7581900358200073 -17.815000534057617 -20.602399826049805 -31.94179916381836 2.0321699480147914e-16 0.0 3.8825099822884138e-19 66.10279846191406 -57.65300369262695 54.867401123046875 2.1461899280548096 69.92569732666016 -2.2683398723602295 0.785673975944519 -1.7671500444412231 1.8169296979904175
-10.503399999999997 69.9978 25.458900000000003 -16.1669979095459 -25.511804580688477 12.916299819946289 11.822900772094727 7.060349941253662 11.604798316955566 -1.7529000043869019 -7.774690628051758 3.2617197036743164 -2.0418198108673096 14.19270133972168 1.1827298402786255 6.859460353851318 -26.173004150390625 4.0024800300598145 -0.0 0.0 -0.0 -0.0 0.0 -0.0 -1.0658899300295885e-13 1.3766799386669831e-13 -1.3556999490030308e-12 77.16070556640625 47.9182014465332 -18.764698028564453 -28.407297134399414 -36.86079788208008 78.4595947265625 -0.13552400469779968 10.440499305725098 1.483930230140686 -5.000759806250699e-09 -9.40814004479762e-09 7.948240288158104e-09 -8.569729814666971e-09 -1.681280004106611e-08 1.3774999807480981e-08 -5.000750036288082e-09 -9.408149814760236e-09 7.948240288158104e-09 7.730909824371338 5.474879741668701 0.4173140823841095 -5.000759806250699e-09 -9.408129386656583e-09 7.9482491699423e-09 2.9055399894714355 0.9651829600334167 0.10290199518203735 -5.000759806250699e-09 -9.40814004479762e-09 7.9482491699423e-09 10.27859878540039 0.73180091381073 0.025912316516041756 -5.000759806250699e-09 -9.40814004479762e-09 7.948259828083337e-09 2.221669912338257 -0.733487069606781 -0.208919957280159 -1.0674599225379833e-13 1.3767300830174606e-13 -1.355929908283815e-12 -51.843299865722656 30.8645076751709 -30.013900756835938 28.413698196411133 -36.70159912109375 -78.19050598144531 0.8534849882125854 -25.274900436401367 3.8048694133758545 3.0331499534241857e-09 -1.0148100137996607e-08 6.4646399344781e-10 5.217850151950643e-09 -1.7350100023350024e-08 1.1865199933680515e-09 3.0331499534241857e-09 -1.0148100137996607e-08 6.464669910499765e-10 -7.730909824371338 5.474879741668701 -0.4173140823841095 3.0331499534241857e-09 -1.0148100137996607e-08 6.464659363381031e-10 -2.9055399894714355 0.9651829600334167 -0.10290199518203735 3.033139961416964e-09 -1.0148100137996607e-08 6.464659363381031e-10 -10.27859878540039 0.73180091381073 -0.025912316516041756 3.0331499534241857e-09 -1.0148100137996607e-08 6.464609958456435e-10 -2.221669912338257 -0.733487069606781 0.208919957280159 -2.0321699480147914e-16 0.0 -3.8825099822884138e-19 0.5945619344711304 -1.6780298948287964 -4.381979942321777 -0.17125998437404633 40.821197509765625 1.7633699178695679 -17.72429847717285 -20.365100860595703 -31.954599380493164 2.0321699480147914e-16 0.0 3.8825099822884138e-19 66.51800537109375 -57.65370178222656 55.23879623413086 2.210089683532715 70.31180572509766 -2.321889877319336 0.7844419479370117 -1.8105500936508179 1.7336100339889526
-10.5054 69.8197 25.5165 -16.22429656982422 -25.4718017578125 13.016900062561035 11.780600547790527 7.049600601196289 11.594700813293457 -1.6845300197601318 -7.682190895080566 3.262089967727661 -1.9865999221801758 14.037601470947266 1.1691499948501587 6.7040696144104 -25.988901138305664 3.931699514389038 -0.0 0.0 -0.0 -0.0 0.0 -0.0 -5.896089619685831e-15 1.933209993996987e-13 -1.1361998581566057e-12 76.71309661865234 47.534400939941406 -18.335603713989258 -28.409299850463867 -36.81380081176758 78.38019561767578 -0.13884100317955017 10.561698913574219 1.5015798807144165 -4.330479530523235e-09 -6.110379757728879e-09 6.572139721328085e-09 -7.421570025201163e-09 -1.102980018430344e-08 1.13899005782514e-08 -4.330469760560618e-09 -6.110379757728879e-09 6.572139721328085e-09 7.730909824371338 5.474879741668701 0.4173140823841095 -4.330479530523235e-09 -6.110369543677052e-09 6.572149935379912e-09 2.9055399894714355 0.9651829600334167 0.10290199518203735 -4.330479530523235e-09 -6.110379757728879e-09 6.572149935379912e-09 10.27859878540039 0.73180091381073 0.025912316516041756 -4.330479530523235e-09 -6.110379757728879e-09 6.572149935379912e-09 2.221669912338257 -0.733487069606781 -0.208919957280159 -6.043439894706662e-15 1.933269896167017e-13 -1.1363799441374556e-12 -52.034393310546875 30.62670135498047 -30.323802947998047 28.41519546508789 -36.66420364379883 -78.12689971923828 0.8743689060211182 -25.560300827026367 3.854029417037964 2.6178899048545645e-09 -8.250819583111024e-09 6.617620340598762e-10 4.5051598007717075e-09 -1.4108098689291637e-08 1.1997598470259163e-09 2.617879912847343e-09 -8.250808924969988e-09 6.617680292642092e-10 -7.730909824371338 5.474879741668701 -0.4173140823841095 2.6178899048545645e-09 -8.250819583111024e-09 6.617649761508915e-10 -2.9055399894714355 0.9651829600334167 -0.10290199518203735 2.617879912847343e-09 -8.250819583111024e-09 6.617620340598762e-10 -10.27859878540039 0.73180091381073 -0.025912316516041756 2.6178899048545645e-09 -8.250819583111024e-09 6.617560388555432e-10 -2.221669912338257 -0.733487069606781 0.208919957280159 -2.0321699480147914e-16 0.0 -3.8825099822884138e-19 0.3610849678516388 -1.8228399753570557 -4.648240089416504 -0.17544901371002197 41.08510971069336 1.7733198404312134 -17.681299209594727 -20.46160125732422 -31.78230094909668 2.0321699480147914e-16 0.0 3.8825099822884138e-19 67.0031967163086 -57.85289764404297 55.68449783325195 2.2727301120758057 70.69351196289062 -2.3827500343322754 0.7718339562416077 -1.8398900032043457 1.6441903114318848
